<svg xmlns="http://www.w3.org/2000/svg" width="80" height="80"><circle cx="40" cy="40" r="37.5" fill="#c8d6e5"/><path style="line-height:normal;font-variant-ligatures:normal;font-variant-position:normal;font-variant-caps:normal;font-variant-numeric:normal;font-variant-alternates:normal;font-variant-east-asian:normal;font-feature-settings:normal;font-variation-settings:normal;text-indent:0;text-align:start;text-decoration-line:none;text-decoration-style:solid;text-decoration-color:#000;text-transform:none;text-orientation:mixed;white-space:normal;shape-padding:0;shape-margin:0;inline-size:0;isolation:auto;mix-blend-mode:normal;solid-color:#000;solid-opacity:1" d="M24 15a4 4 0 00-4 4v42a4 4 0 004 4h32a4 4 0 004-4V25.178L49.82 15z" color="#000" font-weight="400" font-family="sans-serif" overflow="visible" fill="#341f97"/><path d="M23 18v44h34V28.28H46.82V18zm26.82 0v7.28H57v-.102z" fill="#fff"/><g aria-label="ZIP" style="line-height:1.25;-inkscape-font-specification:'Times New Roman, '" font-size="13.077" font-family="Nunito" letter-spacing="0" word-spacing="0" fill="#341f97" font-weight="700"><path d="M36.571 55.63q.817 0 .817.641 0 .654-.817.654h-5.795q-.354 0-.572-.189-.204-.201-.204-.503 0-.301.218-.578l4.87-6.297H30.83q-.816 0-.816-.642 0-.653.816-.653h5.619q.354 0 .558.201.218.189.218.478t-.232.578l-4.87 6.31zM39.605 57q-.394 0-.639-.226-.231-.227-.231-.591v-7.379q0-.364.231-.578.245-.226.64-.226.408 0 .639.226.245.214.245.578v7.379q0 .364-.245.59-.231.227-.64.227zM43.429 57q-.395 0-.64-.214-.231-.226-.231-.603V48.83q0-.365.217-.566.232-.201.626-.201h3.347q1.538 0 2.395.716.857.704.857 1.986t-.857 1.999q-.857.716-2.395.716h-2.435v2.703q0 .377-.245.603-.231.214-.64.214zm3.102-4.764q1.81 0 1.81-1.458t-1.81-1.458h-2.218v2.916z" style="-inkscape-font-specification:'Nunito Bold'"/></g><path d="M39.95 18v3h3v-3h-3zm0 3h-3v3h3v-3zm0 3v3h3v-3h-3zm0 3h-3v3h3v-3zm0 3v3h3v-3h-3zm0 3h-3v3c0 1.07.573 2.063 1.5 2.598a3.005 3.005 0 003 0A3.005 3.005 0 0042.95 36h-3v-3z" fill="#341f97"/></svg>